<?xml version="1.0" encoding="utf-8"?>
<svg xmlns="http://www.w3.org/2000/svg" viewBox="0 0 35 33" fill="none">
  <path d="M32.96 1L19.93 10.72l2.44-5.73L32.96 1z" fill="#E17726"/>
  <path d="M2.66 1l13.02 9.8-2.32-5.81L2.66 1z" fill="#E27625"/>
  <path d="M28.23 23.53l-3.5 5.37 7.53 2.03 2.13-7.28-6.16-.12z" fill="#E27625"/>
  <path d="M1.23 23.65l2.12 7.28 7.52-2.03-3.48-5.37-6.16.12z" fill="#E27625"/>
  <path d="M10.47 14.51l-2.08 3.14 7.44.34-.24-7.97-5.12 4.49z" fill="#E27625"/>
  <path d="M25.16 14.52L19.94 9.93l-.12 8.06 7.44-.34-2.1-3.13z" fill="#E27625"/>
  <path d="M10.87 28.9l4.52-2.18-3.86-3.01-.66 5.19z" fill="#E27625"/>
  <path d="M20.23 26.72l4.52 2.18-.66-5.19-3.86 3.01z" fill="#E27625"/>
  <path d="M24.75 28.9l-4.52-2.18.36 2.89-.04 1.23 4.2-1.94z" fill="#D5BFB2"/>
  <path d="M10.87 28.9l4.2 1.94-.03-1.23.35-2.89-4.52 2.18z" fill="#D5BFB2"/>
  <path d="M15.14 21.78l-3.71-1.09 2.61-1.2 1.1 2.29z" fill="#233447"/>
  <path d="M20.48 21.78l1.1-2.29 2.62 1.2-3.72 1.09z" fill="#233447"/>
  <path d="M10.87 28.9l.7-5.37-4.18.12 3.48 5.25z" fill="#CC6228"/>
  <path d="M24.06 23.53l.69 5.37 3.49-5.25-4.18-.12z" fill="#CC6228"/>
  <path d="M27.26 17.65l-7.44.34.66 3.79 1.1-2.29 2.62 1.2 3.06-3.04z" fill="#CC6228"/>
  <path d="M11.43 20.69l2.61-1.2 1.1 2.29.66-3.79-7.41-.34 3.04 3.04z" fill="#CC6228"/>
  <path d="M8.39 17.65l3.14 6.06-.1-3.02-3.04-3.04z" fill="#E27525"/>
  <path d="M24.2 20.69l-.11 3.02 3.17-6.06-3.06 3.04z" fill="#E27525"/>
  <path d="M15.8 17.99l-.66 3.79.83 4.5.14-5.93-.31-2.36z" fill="#E27525"/>
  <path d="M19.82 17.99l-.3 2.36.14 5.93.83-4.5-.67-3.79z" fill="#E27525"/>
  <path d="M20.48 21.78l-.83 4.5.58.44 3.86-3.01.11-3.02-3.72 1.09z" fill="#F5841F"/>
  <path d="M11.43 20.69l.1 3.02 3.86 3.01.58-.44-.83-4.5-3.71-1.09z" fill="#F5841F"/>
  <path d="M20.55 30.85l.04-1.24-.34-.29h-4.87l-.34.29.03 1.24-4.2-1.95 1.44 1.19 3.01 2.03h4.98l3.01-2.03 1.44-1.19-4.2 1.95z" fill="#C0AC9D"/>
  <path d="M20.23 26.72l-.58-.44h-3.68l-.58.44-.35 2.89.34-.29h4.87l.34.29-.36-2.89z" fill="#161616"/>
  <path d="M33.65 11.35l1.1-5.34-1.8-5.01-12.72 9.38 4.92 4.13 6.94 2 1.52-1.76-.69-.51 1.05-1 -.85-.66 1.05-.84-.52-.39z" fill="#763E1A"/>
  <path d="M1 6.01l1.12 5.34-.55.39 1.05.84-.85.66 1.05 1-.7.51 1.53 1.76 6.94-2 4.92-4.13L2.78 1 1 6.01z" fill="#763E1A"/>
  <path d="M32.09 16.51l-6.94-2 2.11 3.13-3.17 6.06 4.14-.06h6.16l-2.3-7.13z" fill="#F5841F"/>
  <path d="M10.58 14.51l-6.94 2-2.41 7.13h6.16l4.14.06-3.14-6.06 2.19-3.13z" fill="#F5841F"/>
  <path d="M19.82 17.99l.4-7.61 2.04-5.39H13.36l2.03 5.39.41 7.61.17 2.36v5.94h3.68v-5.94l.17-2.36z" fill="#F5841F"/>
</svg> 